<svg width="101" height="101" viewBox="0 0 101 101" fill="none" xmlns="http://www.w3.org/2000/svg">
<path d="M100.046 5.79932C100.104 2.51421 97.4315 -0.183725 94.1516 0.00980283C79.1493 0.895 67.7318 5.78865 60.4119 15.3052C59.7823 16.1237 59.9422 17.2855 60.7332 17.9493L88.7322 41.4432C89.665 42.226 91.0791 41.9986 91.6921 40.9464C97.9988 30.1215 99.7816 20.9972 100.046 5.79932Z" fill="#F58D2E"/>
<path d="M0.0343498 5.86041C-0.0228803 2.5753 2.64919 -0.122632 5.92909 0.0708949C20.9314 0.956092 32.3488 5.84974 39.6688 15.3662C40.2984 16.1847 40.1385 17.3466 39.3475 18.0104L11.3485 41.5043C10.4156 42.2871 9.00161 42.0596 8.38861 41.0075C2.08192 30.1826 0.299113 21.0583 0.0343498 5.86041Z" fill="#F58D2E"/>
<path d="M93.9924 43.2552C94.5074 20.1278 70.7801 6.06815 50 6.06815C29.2196 6.06815 5.49295 20.1278 6.00764 43.2552C2.17585 48.7013 0 54.9391 0 61.5681C0 82.8311 22.3858 100.068 50 100.068C77.6142 100.068 100 82.8311 100 61.5681C100 54.9391 97.8242 48.7013 93.9924 43.2552Z" fill="#FC9A41"/>
<path d="M72.0349 43.0681C72.0349 46.3819 69.3486 49.0681 66.0349 49.0681C62.7212 49.0681 60.0349 46.3819 60.0349 43.0681C60.0349 39.7544 62.7212 37.0681 66.0349 37.0681C69.3486 37.0681 72.0349 39.7544 72.0349 43.0681Z" fill="black"/>
<path d="M40.0349 43.0681C40.0349 46.3819 37.3486 49.0681 34.0349 49.0681C30.7212 49.0681 28.0349 46.3819 28.0349 43.0681C28.0349 39.7544 30.7212 37.0681 34.0349 37.0681C37.3486 37.0681 40.0349 39.7544 40.0349 43.0681Z" fill="black"/>
<path d="M36.0349 58.0681C36.0349 56.9636 35.1395 56.0681 34.0349 56.0681C32.9303 56.0681 32.0349 56.9636 32.0349 58.0681C32.0349 63.591 36.5121 68.0681 42.0349 68.0681C45.3061 68.0681 48.2105 66.4975 50.0349 64.0691C51.8594 66.4975 54.7637 68.0681 58.0349 68.0681C61.1938 68.0681 64.0114 66.6012 65.8408 64.3191C67.2129 62.6075 68.0349 60.4311 68.0349 58.0681C68.0349 56.9636 67.1395 56.0681 66.0349 56.0681C64.9303 56.0681 64.0349 56.9636 64.0349 58.0681C64.0349 59.489 63.5435 60.7896 62.7198 61.8172C61.6169 63.193 59.9288 64.0681 58.0349 64.0681C54.7212 64.0681 52.0349 61.3819 52.0349 58.0681C52.0349 56.9636 51.1395 56.0681 50.0349 56.0681C48.9303 56.0681 48.0349 56.9636 48.0349 58.0681C48.0349 61.3819 45.3486 64.0681 42.0349 64.0681C38.7212 64.0681 36.0349 61.3819 36.0349 58.0681Z" fill="black"/>
<path fill-rule="evenodd" clip-rule="evenodd" d="M43.0349 54.0681C43.0349 51.859 44.8258 50.0681 47.0349 50.0681H53.0349C55.2441 50.0681 57.0349 51.859 57.0349 54.0681C57.0349 56.2773 55.2441 58.0681 53.0349 58.0681H47.0349C44.8258 58.0681 43.0349 56.2773 43.0349 54.0681Z" fill="#CE3B3B"/>
<path d="M8.35093 53.9895C7.31297 53.6118 6.7778 52.4641 7.15558 51.4261C7.53337 50.3882 8.68105 49.853 9.71901 50.2308L18.1762 53.309C19.2142 53.6867 19.7494 54.8344 19.3716 55.8724C18.9938 56.9103 17.8461 57.4455 16.8082 57.0677L8.35093 53.9895Z" fill="black"/>
<path d="M92.8292 51.4261C93.2069 52.4641 92.6718 53.6118 91.6338 53.9895L83.1766 57.0677C82.1386 57.4455 80.9909 56.9103 80.6132 55.8724C80.2354 54.8344 80.7705 53.6867 81.8085 53.309L90.2657 50.2308C91.3037 49.853 92.4514 50.3882 92.8292 51.4261Z" fill="black"/>
<path d="M82.7837 65.7199C81.7583 65.3091 80.5941 65.8072 80.1833 66.8325C79.7724 67.8579 80.2706 69.0221 81.2959 69.4329L89.6502 72.7804C90.6756 73.1912 91.8398 72.6931 92.2506 71.6677C92.6615 70.6424 92.1633 69.4782 91.138 69.0674L82.7837 65.7199Z" fill="black"/>
<path d="M77.4492 77.654C76.6681 76.8729 75.4018 76.8729 74.6208 77.654C73.8397 78.435 73.8397 79.7013 74.6208 80.4824L80.9847 86.8463C81.7658 87.6274 83.0321 87.6274 83.8131 86.8463C84.5942 86.0653 84.5942 84.799 83.8131 84.0179L77.4492 77.654Z" fill="black"/>
<path d="M22.5356 77.654C23.3166 76.8729 24.5829 76.8729 25.364 77.654C26.145 78.435 26.145 79.7013 25.364 80.4824L19 86.8463C18.219 87.6274 16.9526 87.6274 16.1716 86.8463C15.3905 86.0653 15.3905 84.799 16.1716 84.0179L22.5356 77.654Z" fill="black"/>
<path d="M19.8015 66.8325C19.3906 65.8072 18.2264 65.3091 17.2011 65.7199L8.84675 69.0674C7.82143 69.4782 7.32328 70.6424 7.73411 71.6677C8.14495 72.6931 9.30918 73.1912 10.3345 72.7804L18.6888 69.4329C19.7141 69.0221 20.2123 67.8579 19.8015 66.8325Z" fill="black"/>
<path fill-rule="evenodd" clip-rule="evenodd" d="M45 6.3324C42.3275 6.61194 39.6423 7.11116 37 7.81986V24.9266C37 27.1358 38.7909 28.9266 41 28.9266C43.2091 28.9266 45 27.1358 45 24.9266V6.3324ZM55 6.3324C57.6725 6.61196 60.3577 7.11117 63 7.81988V24.9266C63 27.1358 61.2091 28.9266 59 28.9266C56.7909 28.9266 55 27.1358 55 24.9266V6.3324Z" fill="#F58D2E"/>
</svg>
