<svg width="15" height="15" viewBox="0 0 15 15" fill="none" xmlns="http://www.w3.org/2000/svg">
<g id="circle-user">
<g id="circle-user_2">
<path id="Vector (Stroke)" fill-rule="evenodd" clip-rule="evenodd" d="M7.69872 2.26712C4.92973 2.26712 2.68502 4.51183 2.68502 7.28082C2.68502 10.0498 4.92973 12.2945 7.69872 12.2945C10.4677 12.2945 12.7124 10.0498 12.7124 7.28082C12.7124 4.51183 10.4677 2.26712 7.69872 2.26712ZM1.20557 7.28082C1.20557 3.69475 4.11265 0.78767 7.69872 0.78767C11.2848 0.78767 14.1919 3.69475 14.1919 7.28082C14.1919 10.8669 11.2848 13.774 7.69872 13.774C4.11265 13.774 1.20557 10.8669 1.20557 7.28082Z" fill="#5E5E5E"/>
<path id="Vector (Stroke)_2" fill-rule="evenodd" clip-rule="evenodd" d="M7.69866 5.14383C7.15395 5.14383 6.71236 5.58542 6.71236 6.13014C6.71236 6.67485 7.15395 7.11644 7.69866 7.11644C8.24337 7.11644 8.68496 6.67485 8.68496 6.13014C8.68496 5.58542 8.24337 5.14383 7.69866 5.14383ZM5.23291 6.13014C5.23291 4.76833 6.33688 3.66438 7.69866 3.66438C9.06044 3.66438 10.1644 4.76833 10.1644 6.13014C10.1644 7.49194 9.06044 8.59589 7.69866 8.59589C6.33688 8.59589 5.23291 7.49194 5.23291 6.13014Z" fill="#5E5E5E"/>
<path id="Ellipse 33 (Stroke)" fill-rule="evenodd" clip-rule="evenodd" d="M5.66797 10.8717C5.17552 11.2 4.98629 11.5723 4.98629 11.8836C4.98629 12.2921 4.6551 12.6233 4.24656 12.6233C3.83802 12.6233 3.50684 12.2921 3.50684 11.8836C3.50684 10.9238 4.09037 10.1454 4.84732 9.64076C5.60944 9.13268 6.61969 8.84246 7.69862 8.84246C8.77755 8.84246 9.78779 9.13268 10.5499 9.64076C11.3069 10.1454 11.8904 10.9238 11.8904 11.8836C11.8904 12.2921 11.5592 12.6233 11.1507 12.6233C10.7421 12.6233 10.4109 12.2921 10.4109 11.8836C10.4109 11.5723 10.2217 11.2 9.72926 10.8717C9.24198 10.5469 8.5262 10.3219 7.69862 10.3219C6.87103 10.3219 6.15525 10.5469 5.66797 10.8717Z" fill="#5E5E5E"/>
</g>
</g>
</svg>
