<svg width="14" height="14" viewBox="0 0 14 14" fill="none" xmlns="http://www.w3.org/2000/svg">
<g id="Group 6">
<path id="Rectangle 9" d="M3.23169 3.95606C3.23169 1.91418 4.88696 0.258911 6.92884 0.258911V0.258911C8.97072 0.258911 10.626 1.91418 10.626 3.95606V10.2549C10.626 12.2968 8.97072 13.9521 6.92884 13.9521V13.9521C4.88696 13.9521 3.23169 12.2968 3.23169 10.2549V3.95606Z" fill="#CCCCCC"/>
<g id="Rectangle 7">
<path d="M9.01606 1.35046C8.82833 0.831148 9.30101 0.314667 9.83488 0.455772L10.8982 0.736818C12.5941 1.18503 13.7754 2.71912 13.7754 4.47319V6.70251C13.7754 7.60569 13.0432 8.33786 12.14 8.33786V8.33786C11.2368 8.33786 10.5046 7.60569 10.5046 6.70251V5.89608C10.5046 5.61303 10.4554 5.33214 10.3592 5.06595L9.01606 1.35046Z" fill="white"/>
<path d="M9.01606 1.35046C8.82833 0.831148 9.30101 0.314667 9.83488 0.455772L10.8982 0.736818C12.5941 1.18503 13.7754 2.71912 13.7754 4.47319V6.70251C13.7754 7.60569 13.0432 8.33786 12.14 8.33786V8.33786C11.2368 8.33786 10.5046 7.60569 10.5046 6.70251V5.89608C10.5046 5.61303 10.4554 5.33214 10.3592 5.06595L9.01606 1.35046Z" fill="black" fill-opacity="0.2"/>
</g>
<g id="Rectangle 8">
<path d="M4.84136 1.35046C5.0291 0.831148 4.55641 0.314667 4.02254 0.455772L2.9592 0.736818C1.26337 1.18503 0.0820703 2.71912 0.0820703 4.47319V6.70251C0.0820703 7.60569 0.814242 8.33786 1.71742 8.33786V8.33786C2.6206 8.33786 3.35277 7.60569 3.35277 6.70251V5.89608C3.35277 5.61303 3.40199 5.33214 3.49821 5.06595L4.84136 1.35046Z" fill="white"/>
<path d="M4.84136 1.35046C5.0291 0.831148 4.55641 0.314667 4.02254 0.455772L2.9592 0.736818C1.26337 1.18503 0.0820703 2.71912 0.0820703 4.47319V6.70251C0.0820703 7.60569 0.814242 8.33786 1.71742 8.33786V8.33786C2.6206 8.33786 3.35277 7.60569 3.35277 6.70251V5.89608C3.35277 5.61303 3.40199 5.33214 3.49821 5.06595L4.84136 1.35046Z" fill="black" fill-opacity="0.2"/>
</g>
<path id="Rectangle 6" d="M2.27319 4.36686C2.27319 2.0981 4.11238 0.258911 6.38113 0.258911H7.47659C9.74534 0.258911 11.5845 2.0981 11.5845 4.36686V7.79014C11.5845 14.2053 2.27319 14.2053 2.27319 7.79014V4.36686Z" fill="#E5E5E5"/>
<path id="Intersect" fill-rule="evenodd" clip-rule="evenodd" d="M11.5807 7.97969C9.90693 8.25472 8.1382 7.63605 7.01271 6.2105C5.60796 4.43122 5.65839 1.9689 6.99517 0.258911L7.47653 0.258911C9.74529 0.258911 11.5845 2.0981 11.5845 4.36686V7.79014C11.5845 7.85363 11.5832 7.91682 11.5807 7.97969Z" fill="#727272"/>
<g id="Union">
<path d="M5.01202 5.73617C5.46577 5.73617 5.83361 5.36833 5.83361 4.91458C5.83361 4.46083 5.46577 4.09299 5.01202 4.09299C4.55827 4.09299 4.19043 4.46083 4.19043 4.91458C4.19043 5.36833 4.55827 5.73617 5.01202 5.73617Z" fill="black"/>
<path d="M8.70917 5.73617C9.16292 5.73617 9.53075 5.36833 9.53075 4.91458C9.53075 4.46083 9.16292 4.09299 8.70917 4.09299C8.25542 4.09299 7.88758 4.46083 7.88758 4.91458C7.88758 5.36833 8.25542 5.73617 8.70917 5.73617Z" fill="black"/>
</g>
<g id="Union_2">
<path d="M5.55944 8.33787C5.55944 8.18662 5.43683 8.06401 5.28558 8.06401C5.13433 8.06401 5.01172 8.18662 5.01172 8.33787C5.01172 8.94287 5.50217 9.43332 6.10717 9.43332C6.43435 9.43332 6.72803 9.28988 6.92876 9.06246C7.12948 9.28988 7.42316 9.43332 7.75035 9.43332C8.09641 9.43332 8.40511 9.27253 8.60542 9.02266C8.75571 8.83517 8.8458 8.59666 8.8458 8.33787C8.8458 8.18662 8.72318 8.06401 8.57193 8.06401C8.42068 8.06401 8.29807 8.18662 8.29807 8.33787C8.29807 8.46767 8.25327 8.58625 8.17806 8.68007C8.07723 8.80585 7.92319 8.8856 7.75035 8.8856C7.44785 8.8856 7.20262 8.64037 7.20262 8.33787C7.20262 8.18662 7.08001 8.06401 6.92876 8.06401C6.77751 8.06401 6.6549 8.18662 6.6549 8.33787C6.6549 8.64037 6.40967 8.8856 6.10717 8.8856C5.80467 8.8856 5.55944 8.64037 5.55944 8.33787Z" fill="black"/>
</g>
<path id="Vector 1 (Stroke)" fill-rule="evenodd" clip-rule="evenodd" d="M5.9751 7.80952C5.9751 7.50702 6.22032 7.2618 6.52282 7.2618H7.34441C7.64691 7.2618 7.89214 7.50702 7.89214 7.80952C7.89214 8.11203 7.64691 8.35725 7.34441 8.35725H6.52282C6.22032 8.35725 5.9751 8.11203 5.9751 7.80952Z" fill="black"/>
</g>
</svg>
