<svg width="100" height="89" viewBox="0 0 100 89" fill="none" xmlns="http://www.w3.org/2000/svg">
<path d="M39.8888 15.2293C19.1265 14.56 0.0360796 13.9445 0 35.2563C-2.92537e-05 106.915 100 106.915 100 35.2563C99.9639 13.9445 80.8735 14.56 60.1112 15.2293C53.1388 15.4541 46.8612 15.4541 39.8888 15.2293Z" fill="#275532"/>
<path fill-rule="evenodd" clip-rule="evenodd" d="M69.697 0C77.92 0 84.7086 5.99036 85.7267 13.7414C85.8363 14.576 86.3843 15.3039 87.1763 15.5891C95.2547 18.4986 100 23.5919 100 32.4406C100 42.0279 90.2687 67 50 67C9.73135 67 7.62939e-06 42.0279 7.62939e-06 32.4406C7.62939e-06 23.5919 4.74535 18.4986 12.8237 15.5891C13.6157 15.3039 14.1637 14.576 14.2733 13.7414C15.2914 5.99037 22.08 0 30.303 0C37.2811 0 43.2263 4.31387 45.4886 10.3568C45.8093 11.2133 46.5995 11.8329 47.514 11.8288C48.3359 11.8252 49.1647 11.8235 50 11.8235C50.8353 11.8235 51.6641 11.8252 52.486 11.8288C53.4005 11.8329 54.1907 11.2133 54.5113 10.3568C56.7737 4.31387 62.7189 0 69.697 0Z" fill="#3A894C"/>
<path d="M24 16C24 19.3137 26.6863 22 30 22C33.3137 22 36 19.3137 36 16C36 12.6863 33.3137 10 30 10C26.6863 10 24 12.6863 24 16Z" fill="black"/>
<path d="M64 16C64 19.3137 66.6863 22 70 22C73.3137 22 76 19.3137 76 16C76 12.6863 73.3137 10 70 10C66.6863 10 64 12.6863 64 16Z" fill="black"/>
<path d="M55 49C55 51.2091 56.7909 53 59 53C61.2091 53 63 51.2091 63 49C63 46.7909 61.2091 45 59 45C56.7909 45 55 46.7909 55 49Z" fill="#275532"/>
<path d="M37 49C37 51.2091 38.7909 53 41 53C43.2091 53 45 51.2091 45 49C45 46.7909 43.2091 45 41 45C38.7909 45 37 46.7909 37 49Z" fill="#275532"/>
</svg>
