<svg width="100" height="100" viewBox="0 0 100 100" fill="none" xmlns="http://www.w3.org/2000/svg">
<path d="M0 69.9999C0 86.5685 13.4315 99.9999 30 99.9999H70C86.5685 99.9999 100 86.5685 100 69.9999V10.1029C100 0.932588 88.6866 -3.40154 82.5596 3.42151L77.9801 8.52129C76.0834 10.6334 73.3785 11.8399 70.5397 11.8399H50H29.4603C26.6215 11.8399 23.9166 10.6334 22.0199 8.52129L17.4404 3.42151C11.3133 -3.40154 0 0.932588 0 10.1029V69.9999Z" fill="#727272"/>
<path fill-rule="evenodd" clip-rule="evenodd" d="M48.1411 34.529C49.0953 35.621 50.9048 35.621 51.8591 34.529C55.7891 30.0315 61.5675 27.1904 68.0093 27.1904C79.8501 27.1904 89.449 36.7892 89.449 48.63C89.449 60.4708 79.8501 70.0696 68.0093 70.0696C65.5685 70.0696 63.2229 69.6617 61.037 68.9104C60.2711 68.6471 59.4124 68.8095 58.8398 69.3821L52.5004 75.7215C50.5478 77.6741 47.382 77.6741 45.4293 75.7215L39.5757 69.8679C39.0418 69.334 38.2547 69.1541 37.5251 69.3485C35.7596 69.8189 33.9045 70.0696 31.9908 70.0696C20.15 70.0696 10.5511 60.4708 10.5511 48.63C10.5511 36.7892 20.15 27.1904 31.9908 27.1904C38.4327 27.1904 44.211 30.0315 48.1411 34.529Z" fill="#E5E5E5"/>
<path d="M33.4894 69.8024C32.0444 67.8891 32.1612 65.2194 33.7675 63.4394L45.7942 50.113C47.7798 47.9128 51.2324 47.9128 53.218 50.113L65.2447 63.4394C66.851 65.2194 66.9678 67.8891 65.5229 69.8024L53.4962 85.7284C51.4957 88.3775 47.5165 88.3775 45.516 85.7284L33.4894 69.8024Z" fill="#454545"/>
<path d="M75 47.9999C75 44.6862 72.3137 41.9999 69 41.9999C65.6863 41.9999 63 44.6862 63 47.9999C63 51.3136 65.6863 53.9999 69 53.9999C72.3137 53.9999 75 51.3136 75 47.9999Z" fill="black"/>
<path d="M37 47.9999C37 44.6862 34.3137 41.9999 31 41.9999C27.6863 41.9999 25 44.6862 25 47.9999C25 51.3136 27.6863 53.9999 31 53.9999C34.3137 53.9999 37 51.3136 37 47.9999Z" fill="black"/>
</svg>
